# xmcd CD database file
#
# Track frame offsets:
#	150
#	17082
#	33552
#	52051
#	71744
#	83183
#	98324
#	122461
#	139512
#	154999
#	165006
#	181701
#
# Disc length: 2585 seconds
#
# Revision: 0
# Processed by: cddbd v1.4PL0 Copyright (c) Steve Scherf et al.
# Submitted via: CDex 1.51
#
DISCID=8a0a170c
DTITLE=Wilmer X - Teknikens under
DYEAR=1900
DGENRE=Blues
TTITLE0=Leka med livet
TTITLE1=I dina vilda ögon
TTITLE2=Om en hund mådde så här
TTITLE3=Beredd att ge dig allt
TTITLE4=Smaka egen medicin
TTITLE5=Blå vägen hem
TTITLE6=Teknikens under
TTITLE7=Kan du bedöva mig
TTITLE8=Flugan
TTITLE9=Tusen år
TTITLE10=Bulldogg
TTITLE11=Död mans hand
EXTD=
EXTT0=
EXTT1=
EXTT2=
EXTT3=
EXTT4=
EXTT5=
EXTT6=
EXTT7=
EXTT8=
EXTT9=
EXTT10=
EXTT11=
PLAYORDER=
